0
SECTION
2
HEADER
9
$INSUNITS
70
4
9
$ACADVER
1
AC1014
9
$HANDSEED
5
FFFF
0
ENDSEC
0
SECTION
2
TABLES
0
TABLE
2
VPORT
5
8
100
AcDbSymbolTable
0
ENDTAB
0
TABLE
2
LTYPE
5
5
100
AcDbSymbolTable
0
LTYPE
5
14
100
AcDbSymbolTableRecord
100
AcDbLinetypeTableRecord
2
BYBLOCK
70
0
0
LTYPE
5
15
100
AcDbSymbolTableRecord
100
AcDbLinetypeTableRecord
2
BYLAYER
70
0
0
ENDTAB
0
TABLE
2
LAYER
5
2
100
AcDbSymbolTable
70
2
0
LAYER
5
50
100
AcDbSymbolTableRecord
100
AcDbLayerTableRecord
2
0
70
0
6
CONTINUOUS
0
ENDTAB
0
TABLE
2
STYLE
5
3
100
AcDbSymbolTable
70
1
0
STYLE
5
11
100
AcDbSymbolTableRecord
100
AcDbTextStyleTableRecord
2
STANDARD
70
0
0
ENDTAB
0
TABLE
2
VIEW
5
6
100
AcDbSymbolTable
70
0
0
ENDTAB
0
TABLE
2
UCS
5
7
100
AcDbSymbolTable
70
0
0
ENDTAB
0
TABLE
2
APPID
5
9
100
AcDbSymbolTable
70
2
0
APPID
5
12
100
AcDbSymbolTableRecord
100
AcDbRegAppTableRecord
2
ACAD
70
0
0
ENDTAB
0
TABLE
2
DIMSTYLE
5
A
100
AcDbSymbolTable
70
1
0
ENDTAB
0
TABLE
2
BLOCK_RECORD
5
1
100
AcDbSymbolTable
70
1
0
BLOCK_RECORD
5
1F
100
AcDbSymbolTableRecord
100
AcDbBlockTableRecord
2
*MODEL_SPACE
0
BLOCK_RECORD
5
1B
100
AcDbSymbolTableRecord
100
AcDbBlockTableRecord
2
*PAPER_SPACE
0
ENDTAB
0
ENDSEC
0
SECTION
2
BLOCKS
0
BLOCK
5
20
100
AcDbEntity
100
AcDbBlockBegin
2
*MODEL_SPACE
0
ENDBLK
5
21
100
AcDbEntity
100
AcDbBlockEnd
0
BLOCK
5
1C
100
AcDbEntity
100
AcDbBlockBegin
2
*PAPER_SPACE
0
ENDBLK
5
1D
100
AcDbEntity
100
AcDbBlockEnd
0
ENDSEC
0
SECTION
2
ENTITIES
0
LWPOLYLINE
5
100
100
AcDbEntity
8
0
100
AcDbPolyline
90
24
70
1
43
0.0
10
32.068799999999925
20
-33.902936154507458
42
-0.41421356237309503
10
32.568799999999918
20
-33.402936154507472
10
39.625049999999895
20
-33.402936154507437
42
0.41421356237309503
10
41.625049999999924
20
-31.402936154507426
10
41.625049999999888
20
-30.402936154507465
42
0.41421356237309503
10
39.625049999999895
20
-28.402936154507437
10
32.568799999999918
20
-28.40293615450749
42
-0.41421356237310542
10
32.068799999999911
20
-27.902936154507465
10
32.068799999999911
20
-22.40293615450744
42
0.41421356237309503
10
31.568799999999904
20
-21.902936154507451
10
25.568799999999889
20
-21.902936154507433
42
0.41421356237309503
10
25.068799999999882
20
-22.40293615450744
10
25.068799999999865
20
-27.902936154507465
42
-0.41421356237309503
10
24.568799999999875
20
-28.402936154507454
10
1.9750499999998894
20
-28.402936154507472
42
0.41421356237309503
10
-0.0249500000001035
20
-30.402936154507483
10
-0.0249500000001035
20
-31.402936154507461
42
0.41421356237309503
10
1.9750499999998894
20
-33.402936154507458
10
24.568799999999875
20
-33.402936154507458
42
-0.41421356237309503
10
25.068799999999882
20
-33.902936154507458
10
25.068799999999882
20
-37.402936154507422
42
0.41421356237309503
10
25.568799999999889
20
-37.902936154507429
10
31.568799999999904
20
-37.902936154507429
42
0.41421356237309503
10
32.068799999999911
20
-37.402936154507422
0
LWPOLYLINE
5
101
100
AcDbEntity
8
0
100
AcDbPolyline
90
8
70
1
43
0.0
10
130.32504999999986
20
-4.8529361545073701
10
117.32504999999986
20
-4.8529361545073879
42
0.4142135623730846
10
116.82504999999985
20
-5.3529361545073684
10
116.82504999999989
20
-18.35293615450734
42
0.41421356237310542
10
117.32504999999989
20
-18.852936154507365
10
130.32504999999989
20
-18.852936154507383
42
0.41421356237309503
10
130.82504999999992
20
-18.352936154507393
10
130.82504999999986
20
-5.3529361545073773
42
0.41421356237309503
0
LWPOLYLINE
5
102
100
AcDbEntity
8
0
100
AcDbPolyline
90
8
70
1
43
0.0
10
-99.368700000000061
20
-37.902936154507536
10
-83.987450000000081
20
-37.902936154507536
42
0.41421356237309503
10
-83.487450000000081
20
-37.402936154507543
10
-83.487450000000095
20
-24.40293615450754
42
0.41421356237310542
10
-83.987450000000081
20
-23.902936154507515
10
-99.368700000000075
20
-23.90293615450755
42
0.41421356237309503
10
-99.868700000000075
20
-24.40293615450754
10
-99.868700000000075
20
-37.402936154507529
42
0.41421356237309503
0
LWPOLYLINE
5
103
100
AcDbEntity
8
0
100
AcDbPolyline
90
8
70
1
43
0.0
10
77.937549999999874
20
-4.8529361545074057
42
-0.41421356237309503
10
78.437549999999874
20
-5.3529361545074128
10
78.437549999999888
20
-18.352936154507429
42
-0.41421356237309503
10
77.937549999999902
20
-18.852936154507418
10
64.937549999999902
20
-18.852936154507436
42
-0.41421356237310542
10
64.437549999999888
20
-18.352936154507411
10
64.437549999999874
20
-5.3529361545074217
42
-0.41421356237309503
10
64.93754999999986
20
-4.8529361545074412
0
LWPOLYLINE
5
104
100
AcDbEntity
8
0
100
AcDbPolyline
90
8
70
1
43
0.0
10
-74.462450000000075
20
-4.8529361545075211
42
-0.41421356237308982
10
-73.962450000000089
20
-5.3529361545075371
10
-73.962450000000104
20
-18.352936154507535
42
-0.41421356237309503
10
-74.462450000000104
20
-18.852936154507525
10
-87.462450000000089
20
-18.852936154507542
42
-0.41421356237310542
10
-87.962450000000104
20
-18.352936154507518
10
-87.962450000000075
20
-5.3529361545075371
42
-0.41421356237309503
10
-87.462450000000089
20
-4.8529361545075478
0
LWPOLYLINE
5
105
100
AcDbEntity
8
0
100
AcDbPolyline
90
8
70
1
43
0.0
10
118.91879999999986
20
0.69706384549260036
42
-0.41421356237309503
10
118.41879999999986
20
0.19706384549260214
10
105.41879999999985
20
0.19706384549258438
42
-0.41421356237309503
10
104.91879999999983
20
0.69706384549259148
10
104.91879999999983
20
13.697063845492599
42
-0.41421356237309503
10
105.41879999999985
20
14.197063845492597
10
118.41879999999986
20
14.197063845492615
42
-0.41421356237309503
10
118.91879999999986
20
13.697063845492607
0
LWPOLYLINE
5
106
100
AcDbEntity
8
0
100
AcDbPolyline
90
8
70
1
43
0.0
10
104.13129999999984
20
-4.8529361545073701
10
91.13129999999984
20
-4.8529361545074057
42
0.41421356237309503
10
90.63129999999984
20
-5.3529361545074039
10
90.631299999999868
20
-18.352936154507393
42
0.41421356237310542
10
91.131299999999868
20
-18.8529361545074
10
104.13129999999988
20
-18.852936154507365
42
0.41421356237309503
10
104.6312999999999
20
-18.352936154507358
10
104.63129999999985
20
-5.3529361545073773
42
0.41421356237310542
0
LWPOLYLINE
5
107
100
AcDbEntity
8
0
100
AcDbPolyline
90
8
70
1
43
0.0
10
-74.431200000000075
20
-37.902936154507515
10
-63.674950000000067
20
-37.902936154507444
42
0.41421356237309503
10
-63.174950000000081
20
-37.402936154507458
10
-63.174950000000095
20
-22.402936154507493
42
0.4142135623730846
10
-63.674950000000088
20
-21.90293615450754
10
-74.431200000000089
20
-21.902936154507504
42
0.41421356237309503
10
-74.931200000000104
20
-22.402936154507511
10
-74.931200000000075
20
-37.402936154507493
42
0.41421356237309503
0
LWPOLYLINE
5
108
100
AcDbEntity
8
0
100
AcDbPolyline
90
8
70
1
43
0.0
10
73.175049999999828
20
52.297063845492588
42
-0.4142135623730846
10
73.675049999999828
20
51.797063845492595
10
73.675049999999871
20
38.797063845492595
42
-0.41421356237309503
10
73.175049999999857
20
38.29706384549258
10
60.175049999999857
20
38.297063845492573
42
-0.41421356237308982
10
59.67504999999985
20
38.797063845492573
10
59.675049999999814
20
51.797063845492573
42
-0.41421356237309503
10
60.175049999999821
20
52.297063845492588
0
LWPOLYLINE
5
109
100
AcDbEntity
8
0
100
AcDbPolyline
90
8
70
1
43
0.0
10
-41.124950000000112
20
52.297063845492517
42
-0.41421356237309503
10
-40.624950000000112
20
51.797063845492502
10
-40.624950000000112
20
38.797063845492509
42
-0.41421356237309503
10
-41.124950000000112
20
38.297063845492502
10
-54.124950000000126
20
38.297063845492488
42
-0.41421356237309243
10
-54.624950000000126
20
38.797063845492495
10
-54.624950000000126
20
51.797063845492488
42
-0.41421356237309503
10
-54.124950000000126
20
52.297063845492495
0
LWPOLYLINE
5
110
100
AcDbEntity
8
0
100
AcDbPolyline
90
8
70
1
43
0.0
10
82.700049999999834
20
33.247063845492598
42
-0.41421356237309503
10
83.200049999999834
20
32.74706384549259
10
83.20004999999982
20
19.747063845492583
42
-0.41421356237309503
10
82.700049999999834
20
19.247063845492598
10
69.700049999999862
20
19.247063845492569
42
-0.41421356237308982
10
69.200049999999862
20
19.747063845492569
10
69.200049999999877
20
32.747063845492576
42
-0.41421356237310025
10
69.700049999999862
20
33.247063845492576
0
LWPOLYLINE
5
111
100
AcDbEntity
8
0
100
AcDbPolyline
90
8
70
1
43
0.0
10
-123.18120000000008
20
-37.902936154507572
10
-107.79995000000007
20
-37.902936154507557
42
0.41421356237309503
10
-107.29995000000005
20
-37.402936154507564
10
-107.29995000000009
20
-24.402936154507557
42
0.41421356237309503
10
-107.79995000000008
20
-23.902936154507568
10
-123.18120000000008
20
-23.902936154507568
42
0.41421356237309503
10
-123.68120000000008
20
-24.402936154507557
10
-123.68120000000006
20
-37.402936154507543
42
0.41421356237309503
0
LWPOLYLINE
5
112
100
AcDbEntity
8
0
100
AcDbPolyline
90
8
70
1
43
0.0
10
35.075049999999806
20
52.297063845492566
42
-0.41421356237309503
10
35.575049999999813
20
51.797063845492559
10
35.575049999999848
20
38.797063845492559
42
-0.41421356237309503
10
35.075049999999841
20
38.297063845492552
10
22.075049999999869
20
38.297063845492545
42
-0.41421356237309243
10
21.575049999999862
20
38.797063845492545
10
21.575049999999827
20
51.797063845492545
42
-0.41421356237309503
10
22.075049999999834
20
52.297063845492545
0
LWPOLYLINE
5
113
100
AcDbEntity
8
0
100
AcDbPolyline
90
8
70
1
43
0.0
10
-64.937450000000098
20
14.19706384549249
42
-0.41421356237309503
10
-64.437450000000084
20
13.697063845492483
10
-64.437450000000084
20
0.69706384549247602
42
-0.41421356237309503
10
-64.937450000000069
20
0.1970638454924778
10
-77.937450000000084
20
0.19706384549246003
42
-0.41421356237309503
10
-78.437450000000098
20
0.69706384549246714
10
-78.437450000000098
20
13.697063845492474
42
-0.41421356237309503
10
-77.937450000000098
20
14.197063845492464
0
LWPOLYLINE
5
114
100
AcDbEntity
8
0
100
AcDbPolyline
90
8
70
1
43
0.0
10
92.225049999999811
20
52.297063845492602
42
-0.41421356237309503
10
92.725049999999811
20
51.797063845492595
10
92.72504999999984
20
38.797063845492602
42
-0.41421356237309764
10
92.22504999999984
20
38.297063845492588
10
79.225049999999868
20
38.297063845492573
42
-0.41421356237309503
10
78.725049999999868
20
38.79706384549258
10
78.725049999999811
20
51.797063845492573
42
-0.41421356237309503
10
79.22504999999984
20
52.297063845492595
0
LWPOLYLINE
5
115
100
AcDbEntity
8
0
100
AcDbPolyline
90
8
70
1
43
0.0
10
102.98079999999985
20
14.197063845492597
42
-0.41421356237310025
10
103.48079999999985
20
13.697063845492581
10
103.48079999999985
20
-1.3029361545074014
42
-0.41421356237309503
10
102.98079999999985
20
-1.8029361545073996
10
96.980799999999832
20
-1.8029361545074085
42
-0.41421356237310025
10
96.480799999999817
20
-1.3029361545073925
10
96.480799999999817
20
13.69706384549259
42
-0.41421356237309503
10
96.980799999999832
20
14.197063845492588
0
LWPOLYLINE
5
116
100
AcDbEntity
8
0
100
AcDbPolyline
90
8
70
1
43
0.0
10
130.32504999999989
20
-23.902936154507355
42
-0.41421356237309503
10
130.82504999999992
20
-24.402936154507362
10
130.82504999999992
20
-37.402936154507373
42
-0.41421356237309503
10
130.32504999999989
20
-37.902936154507394
10
117.32504999999989
20
-37.902936154507373
42
-0.41421356237309503
10
116.82504999999989
20
-37.402936154507373
10
116.82504999999989
20
-24.402936154507362
42
-0.41421356237309503
10
117.32504999999989
20
-23.902936154507355
0
LWPOLYLINE
5
117
100
AcDbEntity
8
0
100
AcDbPolyline
90
8
70
1
43
0.0
10
-107.79995000000012
20
33.247063845492448
42
-0.41421356237309503
10
-107.29995000000014
20
32.747063845492463
10
-107.29995000000011
20
19.747063845492452
42
-0.41421356237309503
10
-107.79995000000011
20
19.247063845492463
10
-120.79995000000011
20
19.247063845492434
42
-0.41421356237309503
10
-121.29995000000011
20
19.747063845492441
10
-121.29995000000009
20
32.747063845492448
42
-0.41421356237309503
10
-120.79995000000011
20
33.247063845492441
0
LWPOLYLINE
5
118
100
AcDbEntity
8
0
100
AcDbPolyline
90
8
70
1
43
0.0
10
-7.7874500000001134
20
14.197063845492535
42
-0.41421356237309503
10
-7.2874500000001063
20
13.697063845492528
10
-7.2874500000000975
20
0.69706384549252043
42
-0.41421356237309503
10
-7.7874500000000957
20
0.1970638454925222
10
-20.787450000000085
20
0.19706384549250444
42
-0.41421356237309503
10
-21.287450000000092
20
0.69706384549251155
10
-21.287450000000092
20
13.697063845492519
42
-0.41421356237309503
10
-20.787450000000103
20
14.197063845492508
0
LWPOLYLINE
5
119
100
AcDbEntity
8
0
100
AcDbPolyline
90
8
70
1
43
0.0
10
-146.9937000000001
20
0.19706384549241562
42
-0.41421356237309503
10
-147.4937000000001
20
0.69706384549242273
10
-147.49370000000008
20
13.69706384549243
42
-0.4142135623730846
10
-146.9937000000001
20
14.197063845492419
10
-129.23120000000009
20
14.197063845492428
42
-0.41421356237309503
10
-128.73120000000011
20
13.697063845492439
10
-128.73120000000011
20
0.69706384549243161
42
-0.41421356237309503
10
-129.23120000000009
20
0.19706384549243339
0
LWPOLYLINE
5
120
100
AcDbEntity
8
0
100
AcDbPolyline
90
8
70
1
43
0.0
10
58.887549999999855
20
-4.8529361545074146
42
-0.41421356237309503
10
59.387549999999862
20
-5.3529361545074217
10
59.387549999999877
20
-18.352936154507447
42
-0.41421356237309503
10
58.887549999999891
20
-18.852936154507436
10
45.887549999999884
20
-18.852936154507454
42
-0.41421356237310542
10
45.387549999999877
20
-18.352936154507429
10
45.387549999999869
20
-5.3529361545074305
42
-0.41421356237309503
10
45.887549999999848
20
-4.8529361545074501
0
LWPOLYLINE
5
121
100
AcDbEntity
8
0
100
AcDbPolyline
90
8
70
1
43
0.0
10
149.37504999999982
20
14.19706384549265
42
-0.41421356237310025
10
149.87504999999982
20
13.697063845492634
10
149.87504999999982
20
0.69706384549262701
42
-0.41421356237309503
10
149.37504999999982
20
0.19706384549262879
10
136.37504999999979
20
0.19706384549261102
42
-0.41421356237310025
10
135.87504999999979
20
0.69706384549262701
10
135.87504999999982
20
13.697063845492634
42
-0.41421356237309503
10
136.37504999999979
20
14.197063845492623
0
LWPOLYLINE
5
122
100
AcDbEntity
8
0
100
AcDbPolyline
90
8
70
1
43
0.0
10
-124.4687000000001
20
-4.8529361545075655
42
-0.41421356237309503
10
-123.9687000000001
20
-5.3529361545075549
10
-123.9687000000001
20
-18.352936154507571
42
-0.41421356237309503
10
-124.4687000000001
20
-18.85293615450756
10
-137.46870000000007
20
-18.852936154507578
42
-0.41421356237310542
10
-137.9687000000001
20
-18.352936154507553
10
-137.96870000000007
20
-5.3529361545075638
42
-0.41421356237309503
10
-137.46870000000007
20
-4.8529361545075744
0
LWPOLYLINE
5
123
100
AcDbEntity
8
0
100
AcDbPolyline
90
8
70
1
43
0.0
10
-139.90670000000009
20
-4.8529361545075655
42
-0.41421356237308982
10
-139.40670000000009
20
-5.3529361545075638
10
-139.40670000000011
20
-20.352936154507582
42
-0.41421356237309503
10
-139.90670000000009
20
-20.852936154507553
10
-145.90670000000009
20
-20.852936154507571
42
-0.4142135623730846
10
-146.40670000000006
20
-20.352936154507599
10
-146.40670000000006
20
-5.3529361545075727
42
-0.41421356237309503
10
-145.90670000000009
20
-4.8529361545075922
0
LWPOLYLINE
5
124
100
AcDbEntity
8
0
100
AcDbPolyline
90
8
70
1
43
0.0
10
87.462549999999837
20
14.197063845492597
10
74.462549999999865
20
14.197063845492579
42
0.41421356237309503
10
73.962549999999851
20
13.697063845492581
10
73.962549999999851
20
0.69706384549257372
42
0.41421356237309503
10
74.462549999999865
20
0.19706384549256661
10
87.462549999999837
20
0.19706384549258438
42
0.41421356237309503
10
87.962549999999851
20
0.6970638454925826
10
87.962549999999851
20
13.69706384549259
42
0.41421356237309503
0
LWPOLYLINE
5
125
100
AcDbEntity
8
0
100
AcDbPolyline
90
8
70
1
43
0.0
10
149.37504999999985
20
-23.902936154507337
42
-0.41421356237309503
10
149.87504999999985
20
-24.402936154507344
10
149.87504999999987
20
-37.402936154507351
42
-0.41421356237309503
10
149.37504999999985
20
-37.902936154507373
10
136.37504999999982
20
-37.902936154507373
42
-0.41421356237309503
10
135.87504999999982
20
-37.402936154507373
10
135.87504999999982
20
-24.402936154507362
42
-0.41421356237309503
10
136.37504999999982
20
-23.902936154507355
0
LWPOLYLINE
5
126
100
AcDbEntity
8
0
100
AcDbPolyline
90
8
70
1
43
0.0
10
26.050049999999825
20
19.747063845492541
42
-0.41421356237309503
10
25.550049999999835
20
19.247063845492551
10
12.550049999999864
20
19.247063845492526
42
-0.41421356237309503
10
12.050049999999857
20
19.747063845492534
10
12.050049999999874
20
32.747063845492541
42
-0.41421356237309503
10
12.550049999999864
20
33.247063845492526
10
25.550049999999835
20
33.247063845492555
42
-0.41421356237309503
10
26.050049999999842
20
32.747063845492548
0
LWPOLYLINE
5
127
100
AcDbEntity
8
0
100
AcDbPolyline
90
8
70
1
43
0.0
10
149.37504999999982
20
-4.8529361545073524
42
-0.41421356237309503
10
149.87504999999982
20
-5.3529361545073595
10
149.87504999999982
20
-18.352936154507375
42
-0.41421356237309503
10
149.37504999999985
20
-18.852936154507365
10
136.37504999999982
20
-18.8529361545074
42
-0.41421356237310542
10
135.87504999999982
20
-18.352936154507375
10
135.87504999999982
20
-5.3529361545073684
42
-0.41421356237309503
10
136.37504999999979
20
-4.8529361545073879
0
LWPOLYLINE
5
128
100
AcDbEntity
8
0
100
AcDbPolyline
90
8
70
1
43
0.0
10
-116.0307000000001
20
-4.8529361545075478
42
-0.41421356237309503
10
-115.53070000000008
20
-5.3529361545075549
10
-115.53070000000011
20
-20.352936154507564
42
-0.41421356237309503
10
-116.03070000000008
20
-20.852936154507535
10
-122.03070000000008
20
-20.852936154507589
42
-0.41421356237309503
10
-122.53070000000008
20
-20.352936154507582
10
-122.53070000000008
20
-5.3529361545075549
42
-0.41421356237309503
10
-122.0307000000001
20
-4.8529361545075655
0
LWPOLYLINE
5
129
100
AcDbEntity
8
0
100
AcDbPolyline
90
8
70
1
43
0.0
10
-55.412450000000071
20
-4.8529361545074945
42
-0.41421356237310025
10
-54.912450000000078
20
-5.3529361545075282
10
-54.912450000000099
20
-18.352936154507518
42
-0.41421356237309503
10
-55.412450000000092
20
-18.852936154507507
10
-68.412450000000092
20
-18.852936154507542
42
-0.41421356237310542
10
-68.912450000000106
20
-18.352936154507518
10
-68.912450000000078
20
-5.3529361545075105
42
-0.41421356237309503
10
-68.412450000000092
20
-4.85293615450753
0
LWPOLYLINE
5
130
100
AcDbEntity
8
0
100
AcDbPolyline
90
8
70
1
43
0.0
10
-12.549950000000152
20
33.247063845492526
42
-0.41421356237310542
10
-12.049950000000127
20
32.747063845492519
10
-12.049950000000145
20
19.747063845492512
42
-0.41421356237309503
10
-12.549950000000134
20
19.247063845492526
10
-25.549950000000123
20
19.247063845492498
42
-0.41421356237309503
10
-26.049950000000131
20
19.747063845492505
10
-26.049950000000113
20
32.747063845492512
42
-0.4142135623730846
10
-25.549950000000141
20
33.247063845492505
0
LWPOLYLINE
5
131
100
AcDbEntity
8
0
100
AcDbPolyline
90
8
70
1
43
0.0
10
-60.174950000000123
20
52.297063845492495
42
-0.41421356237309503
10
-59.674950000000123
20
51.797063845492488
10
-59.674950000000123
20
38.797063845492495
42
-0.41421356237309503
10
-60.174950000000123
20
38.297063845492488
10
-73.174950000000138
20
38.297063845492481
42
-0.41421356237309243
10
-73.674950000000138
20
38.797063845492481
10
-73.674950000000138
20
51.797063845492481
42
-0.41421356237309503
10
-73.174950000000138
20
52.297063845492488
0
LWPOLYLINE
5
132
100
AcDbEntity
8
0
100
AcDbPolyline
90
8
70
1
43
0.0
10
80.318799999999896
20
-23.902936154507408
10
64.937549999999902
20
-23.902936154507408
42
0.41421356237309503
10
64.437549999999888
20
-24.402936154507398
10
64.437549999999888
20
-37.402936154507422
42
0.41421356237309503
10
64.937549999999902
20
-37.902936154507429
10
80.318799999999896
20
-37.902936154507429
42
0.41421356237309503
10
80.818799999999868
20
-37.402936154507401
10
80.818799999999868
20
-24.402936154507415
42
0.41421356237309503
0
LWPOLYLINE
5
133
100
AcDbEntity
8
0
100
AcDbPolyline
90
8
70
1
43
0.0
10
45.100049999999868
20
19.747063845492558
42
-0.41421356237309503
10
44.600049999999882
20
19.247063845492569
10
31.600049999999875
20
19.247063845492541
42
-0.41421356237309503
10
31.100049999999868
20
19.747063845492548
10
31.100049999999886
20
32.747063845492555
42
-0.41421356237309503
10
31.600049999999875
20
33.247063845492548
10
44.600049999999882
20
33.247063845492576
42
-0.41421356237309503
10
45.100049999999889
20
32.747063845492562
0
LWPOLYLINE
5
134
100
AcDbEntity
8
0
100
AcDbPolyline
90
8
70
1
43
0.0
10
-93.512450000000086
20
-4.85293615450753
42
-0.41421356237309503
10
-93.012450000000086
20
-5.3529361545075371
10
-93.012450000000101
20
-18.352936154507535
42
-0.41421356237309503
10
-93.512450000000086
20
-18.852936154507525
10
-106.51245000000009
20
-18.852936154507542
42
-0.41421356237310542
10
-107.01245000000007
20
-18.352936154507535
10
-107.01245000000009
20
-5.352936154507546
42
-0.41421356237309503
10
-106.5124500000001
20
-4.8529361545075567
0
LWPOLYLINE
5
135
100
AcDbEntity
8
0
100
AcDbPolyline
90
8
70
1
43
0.0
10
125.56254999999982
20
33.247063845492633
10
112.56254999999982
20
33.247063845492619
42
0.41421356237309503
10
112.06254999999982
20
32.747063845492612
10
112.06254999999982
20
19.747063845492605
42
0.41421356237309503
10
112.56254999999982
20
19.247063845492605
10
125.56254999999982
20
19.247063845492622
42
0.41421356237309503
10
126.06254999999983
20
19.747063845492612
10
126.06254999999983
20
32.747063845492619
42
0.41421356237309503
0
LWPOLYLINE
5
136
100
AcDbEntity
8
0
100
AcDbPolyline
90
8
70
1
43
0.0
10
7.0000499999998489
20
19.747063845492534
42
-0.41421356237309503
10
6.5000499999998596
20
19.247063845492541
10
-6.499950000000112
20
19.247063845492516
42
-0.41421356237309503
10
-6.9999500000001191
20
19.747063845492523
10
-6.9999500000001014
20
32.747063845492534
42
-0.4142135623730846
10
-6.4999500000001298
20
33.247063845492519
10
6.5000499999998596
20
33.247063845492548
42
-0.41421356237309503
10
7.0000499999998667
20
32.747063845492541
0
LWPOLYLINE
5
137
100
AcDbEntity
8
0
100
AcDbPolyline
90
8
70
1
43
0.0
10
68.412549999999868
20
14.197063845492579
42
-0.41421356237309503
10
68.912549999999868
20
13.697063845492572
10
68.912549999999854
20
0.69706384549256484
42
-0.41421356237309503
10
68.412549999999868
20
0.19706384549256661
10
55.412549999999854
20
0.19706384549254885
42
-0.41421356237309503
10
54.912549999999847
20
0.69706384549255596
10
54.912549999999854
20
13.697063845492563
42
-0.41421356237309503
10
55.412549999999854
20
14.197063845492561
0
LWPOLYLINE
5
138
100
AcDbEntity
8
0
100
AcDbPolyline
90
8
70
1
43
0.0
10
49.36254999999985
20
14.19706384549257
10
36.362549999999842
20
14.197063845492552
42
0.41421356237309503
10
35.862549999999835
20
13.697063845492554
10
35.862549999999835
20
0.69706384549254707
42
0.41421356237309503
10
36.362549999999842
20
0.19706384549253997
10
49.36254999999985
20
0.19706384549255773
42
0.41421356237309503
10
49.862549999999857
20
0.69706384549255596
10
49.862549999999857
20
13.697063845492563
42
0.41421356237309503
0
LWPOLYLINE
5
139
100
AcDbEntity
8
0
100
AcDbPolyline
90
8
70
1
43
0.0
10
-146.99370000000008
20
-37.902936154507586
10
-131.61245000000005
20
-37.902936154507572
42
0.41421356237309503
10
-131.11245000000005
20
-37.402936154507586
10
-131.11245000000008
20
-24.402936154507575
42
0.41421356237309503
10
-131.61245000000008
20
-23.902936154507586
10
-146.99370000000008
20
-23.902936154507586
42
0.41421356237309503
10
-147.49370000000008
20
-24.402936154507575
10
-147.49370000000005
20
-37.402936154507564
42
0.41421356237309503
0
LWPOLYLINE
5
140
100
AcDbEntity
8
0
100
AcDbPolyline
90
8
70
1
43
0.0
10
-36.362450000000109
20
-4.8529361545074856
42
-0.41421356237309503
10
-35.862450000000109
20
-5.3529361545074927
10
-35.862450000000123
20
-18.3529361545075
42
-0.41421356237309503
10
-36.362450000000109
20
-18.852936154507489
10
-49.362450000000081
20
-18.852936154507525
42
-0.41421356237310542
10
-49.862450000000095
20
-18.3529361545075
10
-49.862450000000067
20
-5.3529361545075016
42
-0.41421356237309503
10
-49.362450000000081
20
-4.8529361545075211
0
LWPOLYLINE
5
141
100
AcDbEntity
8
0
100
AcDbPolyline
90
8
70
1
43
0.0
10
-131.61245000000011
20
33.247063845492441
42
-0.41421356237309503
10
-131.11245000000011
20
32.747063845492434
10
-131.11245000000011
20
19.747063845492434
42
-0.41421356237309503
10
-131.61245000000011
20
19.247063845492445
10
-144.61245000000011
20
19.247063845492434
42
-0.41421356237309503
10
-145.11245000000008
20
19.747063845492427
10
-145.11245000000008
20
32.747063845492434
42
-0.41421356237309503
10
-144.61245000000011
20
33.24706384549242
0
LWPOLYLINE
5
142
100
AcDbEntity
8
0
100
AcDbPolyline
90
8
70
1
43
0.0
10
111.27504999999988
20
-23.902936154507373
42
-0.41421356237309503
10
111.77504999999989
20
-24.40293615450738
10
111.77504999999991
20
-37.402936154507387
42
-0.41421356237309503
10
111.27504999999988
20
-37.902936154507415
10
98.275049999999879
20
-37.902936154507394
42
-0.41421356237309503
10
97.775049999999879
20
-37.402936154507387
10
97.775049999999879
20
-24.40293615450738
42
-0.41421356237309503
10
98.275049999999879
20
-23.902936154507373
0
LWPOLYLINE
5
143
100
AcDbEntity
8
0
100
AcDbPolyline
90
8
70
1
43
0.0
10
-31.599950000000145
20
33.247063845492519
42
-0.41421356237310542
10
-31.099950000000121
20
32.747063845492512
10
-31.099950000000138
20
19.747063845492505
42
-0.41421356237309503
10
-31.599950000000128
20
19.247063845492516
10
-44.599950000000099
20
19.247063845492491
42
-0.41421356237309503
10
-45.099950000000106
20
19.747063845492498
10
-45.099950000000092
20
32.747063845492505
42
-0.4142135623730846
10
-44.599950000000121
20
33.247063845492491
0
LWPOLYLINE
5
144
100
AcDbEntity
8
0
100
AcDbPolyline
90
8
70
1
43
0.0
10
54.625049999999895
20
38.79706384549258
42
-0.41421356237309503
10
54.125049999999888
20
38.297063845492566
10
41.125049999999881
20
38.297063845492559
42
-0.41421356237308982
10
40.625049999999874
20
38.797063845492559
10
40.625049999999838
20
51.797063845492559
42
-0.41421356237309503
10
41.125049999999845
20
52.297063845492566
10
54.125049999999852
20
52.297063845492573
42
-0.41421356237308982
10
54.62504999999986
20
51.797063845492573
0
LWPOLYLINE
5
145
100
AcDbEntity
8
0
100
AcDbPolyline
90
8
70
1
43
0.0
10
-83.987450000000123
20
14.197063845492481
42
-0.41421356237309503
10
-83.487450000000109
20
13.697063845492474
10
-83.487450000000109
20
0.69706384549246714
42
-0.41421356237309503
10
-83.987450000000123
20
0.19706384549246891
10
-96.987450000000095
20
0.19706384549245115
42
-0.41421356237309503
10
-97.487450000000109
20
0.69706384549245826
10
-97.487450000000109
20
13.697063845492465
42
-0.41421356237309503
10
-96.987450000000109
20
14.197063845492455
0
LWPOLYLINE
5
146
100
AcDbEntity
8
0
100
AcDbPolyline
90
8
70
1
43
0.0
10
-2.524950000000139
20
38.797063845492531
42
-0.41421356237309503
10
-3.0249500000001461
20
38.297063845492531
10
-16.024950000000135
20
38.297063845492517
42
-0.41421356237309243
10
-16.524950000000143
20
38.797063845492524
10
-16.524950000000143
20
51.797063845492524
42
-0.41421356237309503
10
-16.024950000000135
20
52.297063845492531
10
-3.0249500000001461
20
52.297063845492531
42
-0.41421356237309503
10
-2.524950000000139
20
51.797063845492524
0
LWPOLYLINE
5
147
100
AcDbEntity
8
0
100
AcDbPolyline
90
8
70
1
43
0.0
10
-136.37495000000013
20
52.297063845492424
42
-0.41421356237309503
10
-135.87495000000013
20
51.797063845492431
10
-135.87495000000013
20
38.797063845492445
42
-0.41421356237309503
10
-136.37495000000013
20
38.297063845492445
10
-149.3749500000001
20
38.297063845492431
42
-0.41421356237308982
10
-149.87495000000013
20
38.797063845492431
10
-149.87495000000013
20
51.797063845492424
42
-0.41421356237310025
10
-149.37495000000013
20
52.297063845492445
0
LWPOLYLINE
5
148
100
AcDbEntity
8
0
100
AcDbPolyline
90
8
70
1
43
0.0
10
-22.074950000000158
20
52.297063845492524
42
-0.41421356237309503
10
-21.57495000000015
20
51.797063845492517
10
-21.574950000000154
20
38.797063845492524
42
-0.41421356237309503
10
-22.074950000000158
20
38.297063845492517
10
-35.074950000000129
20
38.297063845492502
42
-0.41421356237309243
10
-35.574950000000136
20
38.797063845492509
10
-35.574950000000136
20
51.797063845492502
42
-0.41421356237309503
10
-35.074950000000129
20
52.297063845492517
0
LWPOLYLINE
5
149
100
AcDbEntity
8
0
100
AcDbPolyline
90
20
70
1
43
0.0
10
130.32504999999983
20
52.29706384549263
42
-0.41421356237310025
10
130.82504999999983
20
51.797063845492616
10
130.82504999999986
20
38.797063845492623
42
-0.41421356237309503
10
130.32504999999986
20
38.297063845492609
10
129.73804999999982
20
38.297063845492623
10
129.73804999999982
20
36.797063845492623
42
-0.41421356237309503
10
129.23804999999982
20
36.297063845492616
10
123.23804999999982
20
36.297063845492616
42
-0.41421356237308721
10
122.73804999999982
20
36.797063845492609
10
122.73804999999982
20
38.297063845492609
10
105.86204999999985
20
38.297063845492609
10
105.86204999999985
20
36.797063845492616
42
-0.41421356237309764
10
105.36204999999984
20
36.297063845492595
10
99.36204999999984
20
36.297063845492602
42
-0.41421356237308982
10
98.862049999999826
20
36.797063845492602
10
98.862049999999826
20
38.297063845492602
10
98.275049999999851
20
38.297063845492595
42
-0.41421356237309243
10
97.775049999999837
20
38.797063845492595
10
97.775049999999794
20
51.797063845492595
42
-0.41421356237309503
10
98.275049999999808
20
52.297063845492602
0
LWPOLYLINE
5
150
100
AcDbEntity
8
0
100
AcDbPolyline
90
8
70
1
43
0.0
10
16.525049999999872
20
38.797063845492545
42
-0.41421356237309503
10
16.025049999999865
20
38.297063845492538
10
3.0250499999998937
20
38.297063845492531
42
-0.41421356237309243
10
2.5250499999998866
20
38.797063845492531
10
2.525049999999851
20
51.797063845492531
42
-0.41421356237309503
10
3.0250499999998581
20
52.297063845492538
10
16.02504999999983
20
52.297063845492545
42
-0.41421356237309503
10
16.525049999999837
20
51.797063845492545
0
LWPOLYLINE
5
151
100
AcDbEntity
8
0
100
AcDbPolyline
90
8
70
1
43
0.0
10
149.37504999999976
20
52.297063845492637
42
-0.41421356237309503
10
149.87504999999976
20
51.79706384549263
10
149.87504999999982
20
38.797063845492637
42
-0.41421356237309503
10
149.37504999999982
20
38.297063845492623
10
136.37504999999979
20
38.297063845492623
42
-0.41421356237309243
10
135.87504999999979
20
38.797063845492623
10
135.87504999999976
20
51.797063845492623
42
-0.41421356237309503
10
136.37504999999976
20
52.29706384549263
0
LWPOLYLINE
5
152
100
AcDbEntity
8
0
100
AcDbPolyline
90
8
70
1
43
0.0
10
149.37504999999982
20
33.247063845492647
42
-0.41421356237309503
10
149.87504999999982
20
32.747063845492633
10
149.87504999999979
20
19.747063845492629
42
-0.41421356237309503
10
149.37504999999982
20
19.24706384549264
10
136.37504999999979
20
19.247063845492612
42
-0.41421356237309503
10
135.87504999999979
20
19.747063845492619
10
135.87504999999982
20
32.747063845492626
42
-0.41421356237309503
10
136.37504999999979
20
33.247063845492619
0
LWPOLYLINE
5
153
100
AcDbEntity
8
0
100
AcDbPolyline
90
8
70
1
43
0.0
10
-103.03745000000009
20
14.197063845492446
42
-0.41421356237309503
10
-102.53745000000011
20
13.697063845492456
10
-102.53745000000009
20
0.69706384549244937
42
-0.41421356237309503
10
-103.03745000000009
20
0.19706384549245115
10
-116.03745000000011
20
0.19706384549245115
42
-0.41421356237309503
10
-116.53745000000009
20
0.69706384549244049
10
-116.53745000000009
20
13.697063845492448
42
-0.41421356237309503
10
-116.03745000000011
20
14.197063845492437
0
LWPOLYLINE
5
154
100
AcDbEntity
8
0
100
AcDbPolyline
90
14
70
1
43
0.0
10
56.506299999999889
20
-23.902936154507426
10
51.125049999999916
20
-23.902936154507426
10
51.125049999999916
20
-22.402936154507422
42
0.4142135623730846
10
50.625049999999909
20
-21.902936154507451
10
44.625049999999895
20
-21.902936154507451
42
0.41421356237309503
10
44.125049999999888
20
-22.40293615450744
10
44.125049999999888
20
-23.902936154507426
10
43.506299999999918
20
-23.902936154507444
42
0.41421356237309503
10
43.006299999999911
20
-24.402936154507433
10
43.006299999999911
20
-37.402936154507422
42
0.41421356237309503
10
43.506299999999918
20
-37.902936154507444
10
56.506299999999889
20
-37.902936154507429
42
0.41421356237309503
10
57.006299999999896
20
-37.402936154507422
10
57.006299999999896
20
-24.402936154507433
42
0.41421356237309503
0
LWPOLYLINE
5
155
100
AcDbEntity
8
0
100
AcDbPolyline
90
8
70
1
43
0.0
10
21.287549999999893
20
-18.352936154507464
42
-0.41421356237309503
10
20.787549999999904
20
-18.852936154507454
10
7.7875499999998965
20
-18.852936154507489
42
-0.41421356237310542
10
7.2875499999998894
20
-18.352936154507464
10
7.2875499999998805
20
-5.3529361545074572
42
-0.41421356237309503
10
7.787549999999861
20
-4.8529361545074767
10
20.787549999999868
20
-4.8529361545074412
42
-0.41421356237309503
10
21.287549999999875
20
-5.3529361545074483
0
LWPOLYLINE
5
156
100
AcDbEntity
8
0
100
AcDbPolyline
90
8
70
1
43
0.0
10
101.75004999999985
20
33.247063845492605
42
-0.41421356237309503
10
102.25004999999985
20
32.747063845492605
10
102.25004999999983
20
19.747063845492594
42
-0.41421356237309503
10
101.75004999999985
20
19.247063845492605
10
88.750049999999845
20
19.247063845492576
42
-0.41421356237309503
10
88.250049999999831
20
19.747063845492583
10
88.250049999999845
20
32.74706384549259
42
-0.41421356237309503
10
88.750049999999845
20
33.247063845492583
0
LWPOLYLINE
5
157
100
AcDbEntity
8
0
100
AcDbPolyline
90
8
70
1
43
0.0
10
-45.887450000000101
20
14.197063845492508
42
-0.41421356237309503
10
-45.387450000000094
20
13.697063845492501
10
-45.387450000000086
20
0.69706384549249378
42
-0.41421356237309503
10
-45.887450000000086
20
0.19706384549249556
10
-58.887450000000086
20
0.1970638454924778
42
-0.41421356237309503
10
-59.387450000000101
20
0.6970638454924849
10
-59.387450000000101
20
13.697063845492492
42
-0.41421356237309503
10
-58.887450000000108
20
14.197063845492481
0
LWPOLYLINE
5
158
100
AcDbEntity
8
0
100
AcDbPolyline
90
8
70
1
43
0.0
10
-50.649950000000118
20
33.247063845492505
42
-0.41421356237310542
10
-50.149950000000096
20
32.747063845492491
10
-50.149950000000118
20
19.747063845492487
42
-0.41421356237309503
10
-50.649950000000104
20
19.247063845492498
10
-63.649950000000111
20
19.24706384549247
42
-0.41421356237309503
10
-64.149950000000118
20
19.747063845492477
10
-64.149950000000104
20
32.747063845492484
42
-0.4142135623730846
10
-63.649950000000132
20
33.247063845492477
0
LWPOLYLINE
5
159
100
AcDbEntity
8
0
100
AcDbPolyline
90
8
70
1
43
0.0
10
-88.749950000000126
20
33.247063845492477
42
-0.41421356237309503
10
-88.249950000000126
20
32.74706384549247
10
-88.24995000000014
20
19.747063845492463
42
-0.41421356237309503
10
-88.749950000000126
20
19.24706384549247
10
-101.7499500000001
20
19.247063845492445
42
-0.41421356237309503
10
-102.2499500000001
20
19.747063845492452
10
-102.2499500000001
20
32.747063845492463
42
-0.41421356237309503
10
-101.74995000000011
20
33.247063845492448
0
LWPOLYLINE
5
160
100
AcDbEntity
8
0
100
AcDbPolyline
90
8
70
1
43
0.0
10
-98.274950000000132
20
52.297063845492467
42
-0.41421356237309503
10
-97.774950000000132
20
51.79706384549246
10
-97.774950000000132
20
38.797063845492467
42
-0.41421356237309503
10
-98.274950000000132
20
38.29706384549246
10
-111.27495000000012
20
38.297063845492467
42
-0.41421356237309243
10
-111.7749500000001
20
38.797063845492453
10
-111.77495000000015
20
51.797063845492453
42
-0.41421356237309503
10
-111.27495000000013
20
52.29706384549246
0
LWPOLYLINE
5
161
100
AcDbEntity
8
0
100
AcDbPolyline
90
8
70
1
43
0.0
10
2.2375499999998816
20
-18.352936154507482
42
-0.41421356237309503
10
1.7375499999998922
20
-18.852936154507471
10
-11.262450000000115
20
-18.852936154507489
42
-0.41421356237310542
10
-11.762450000000122
20
-18.352936154507464
10
-11.762450000000095
20
-5.352936154507475
42
-0.41421356237309503
10
-11.262450000000115
20
-4.8529361545074945
10
1.7375499999998567
20
-4.852936154507459
42
-0.41421356237309503
10
2.2375499999998638
20
-5.3529361545074661
0
LWPOLYLINE
5
162
100
AcDbEntity
8
0
100
AcDbPolyline
90
8
70
1
43
0.0
10
-26.837450000000125
20
14.197063845492517
42
-0.41421356237309503
10
-26.337450000000118
20
13.69706384549251
10
-26.337450000000111
20
0.69706384549250267
42
-0.41421356237309503
10
-26.837450000000107
20
0.19706384549250444
10
-39.837450000000075
20
0.19706384549248668
42
-0.41421356237309503
10
-40.337450000000089
20
0.69706384549249378
10
-40.337450000000089
20
13.697063845492501
42
-0.41421356237309503
10
-39.837450000000096
20
14.19706384549249
0
LWPOLYLINE
5
163
100
AcDbEntity
8
0
100
AcDbPolyline
90
8
70
1
43
0.0
10
11.262549999999862
20
14.197063845492544
42
-0.41421356237309503
10
11.762549999999869
20
13.697063845492536
10
11.762549999999861
20
0.69706384549252931
42
-0.41421356237309503
10
11.262549999999862
20
0.19706384549253109
10
-1.7374500000001092
20
0.19706384549251332
42
-0.41421356237309503
10
-2.2374500000001163
20
0.69706384549252043
10
-2.2374500000001163
20
13.697063845492528
42
-0.41421356237309503
10
-1.7374500000001269
20
14.197063845492517
0
LWPOLYLINE
5
164
100
AcDbEntity
8
0
100
AcDbPolyline
90
8
70
1
43
0.0
10
-79.224950000000135
20
52.297063845492474
10
-92.224950000000121
20
52.297063845492467
42
0.41421356237309503
10
-92.724950000000135
20
51.797063845492474
10
-92.724950000000135
20
38.797063845492467
42
0.41421356237309243
10
-92.224950000000121
20
38.297063845492481
10
-79.224950000000135
20
38.297063845492474
42
0.41421356237309503
10
-78.724950000000135
20
38.797063845492481
10
-78.724950000000135
20
51.797063845492474
42
0.41421356237309503
0
LWPOLYLINE
5
165
100
AcDbEntity
8
0
100
AcDbPolyline
90
8
70
1
43
0.0
10
-16.812450000000112
20
-18.3529361545075
42
-0.41421356237309503
10
-17.312450000000101
20
-18.852936154507489
10
-30.312450000000091
20
-18.852936154507507
42
-0.41421356237310542
10
-30.812450000000098
20
-18.352936154507482
10
-30.812450000000069
20
-5.3529361545074838
42
-0.41421356237309503
10
-30.312450000000091
20
-4.8529361545075034
10
-17.312450000000101
20
-4.8529361545074678
42
-0.41421356237309503
10
-16.812450000000094
20
-5.352936154507475
0
LWPOLYLINE
5
166
100
AcDbEntity
8
0
100
AcDbPolyline
90
8
70
1
43
0.0
10
63.650049999999894
20
33.247063845492583
42
-0.41421356237309503
10
64.150049999999908
20
32.747063845492576
10
64.150049999999879
20
19.747063845492569
42
-0.41421356237309503
10
63.650049999999894
20
19.247063845492576
10
50.650049999999887
20
19.247063845492551
42
-0.41421356237309503
10
50.150049999999879
20
19.747063845492558
10
50.150049999999894
20
32.747063845492562
42
-0.41421356237309503
10
50.650049999999887
20
33.247063845492555
0
LWPOLYLINE
5
167
100
AcDbEntity
8
0
100
AcDbPolyline
90
8
70
1
43
0.0
10
39.837549999999879
20
-4.8529361545074323
42
-0.41421356237309503
10
40.337549999999887
20
-5.3529361545074394
10
40.337549999999908
20
-18.352936154507447
42
-0.41421356237309503
10
39.837549999999915
20
-18.852936154507436
10
26.837549999999908
20
-18.852936154507471
42
-0.41421356237310542
10
26.337549999999901
20
-18.352936154507447
10
26.337549999999894
20
-5.3529361545074483
42
-0.41421356237309503
10
26.837549999999872
20
-4.8529361545074678
0
LWPOLYLINE
5
168
100
AcDbEntity
8
0
100
AcDbPolyline
90
8
70
1
43
0.0
10
30.312549999999874
20
14.197063845492561
42
-0.41421356237309503
10
30.812549999999881
20
13.697063845492554
10
30.812549999999874
20
0.69706384549254707
42
-0.41421356237309503
10
30.312549999999874
20
0.19706384549254885
10
17.312549999999867
20
0.19706384549253109
42
-0.41421356237308982
10
16.81254999999986
20
0.69706384549252931
10
16.812549999999877
20
13.697063845492536
42
-0.41421356237310025
10
17.312549999999867
20
14.197063845492535
0
LWPOLYLINE
5
169
100
AcDbEntity
8
0
100
AcDbPolyline
90
8
70
1
43
0.0
10
-117.32495000000013
20
52.297063845492445
42
-0.41421356237309503
10
-116.82495000000014
20
51.797063845492453
10
-116.8249500000001
20
38.79706384549246
42
-0.41421356237309764
10
-117.32495000000011
20
38.297063845492445
10
-130.32495000000011
20
38.297063845492438
42
-0.41421356237309243
10
-130.82495000000011
20
38.797063845492438
10
-130.82495000000011
20
51.797063845492431
42
-0.41421356237309503
10
-130.32495000000011
20
52.297063845492445
0
LWPOLYLINE
5
170
100
AcDbEntity
8
0
100
AcDbPolyline
90
8
70
1
43
0.0
10
-69.699950000000115
20
33.247063845492491
42
-0.41421356237310542
10
-69.199950000000086
20
32.747063845492484
10
-69.199950000000115
20
19.747063845492477
42
-0.41421356237309503
10
-69.699950000000101
20
19.247063845492491
10
-82.699950000000115
20
19.24706384549248
42
-0.41421356237309503
10
-83.199950000000115
20
19.74706384549247
10
-83.199950000000115
20
32.747063845492477
42
-0.41421356237309503
10
-82.699950000000115
20
33.247063845492463
0
LWPOLYLINE
5
171
100
AcDbEntity
8
0
100
AcDbPolyline
90
8
70
1
43
0.0
10
126.85679999999988
20
14.197063845492623
42
-0.4142135623730846
10
127.35679999999985
20
13.697063845492599
10
127.35679999999985
20
-1.3029361545073836
42
-0.41421356237309503
10
126.85679999999984
20
-1.8029361545073819
10
120.85679999999985
20
-1.8029361545073996
42
-0.41421356237310025
10
120.35679999999985
20
-1.3029361545073836
10
120.35679999999986
20
13.697063845492607
42
-0.41421356237309503
10
120.85679999999985
20
14.197063845492597
0
LWPOLYLINE
5
172
100
AcDbEntity
8
0
100
AcDbPolyline
90
56
70
1
43
0.0
10
127.40005000000008
20
-44.427936154507393
42
-0.41421356237310025
10
126.40005000000009
20
-45.427936154507393
10
61.000049999999995
20
-45.427936154507492
42
-0.41421356237309503
10
60.00004999999998
20
-44.427936154507478
10
60.00004999999998
20
-41.427936154507421
42
0.41421356237309503
10
59.000049999999966
20
-40.427936154507442
10
34.70005000000004
20
-40.427936154507478
42
0.41421356237309503
10
33.700050000000026
20
-41.427936154507492
10
33.70004999999999
20
-44.427936154507478
42
-0.41421356237309503
10
32.700050000000012
20
-45.427936154507464
10
-32.699950000000015
20
-45.427936154507535
42
-0.41421356237309503
10
-33.699950000000015
20
-44.427936154507535
10
-33.699950000000015
20
-41.427936154507528
42
0.41421356237309503
10
-34.699950000000008
20
-40.427936154507513
10
-58.999950000000055
20
-40.427936154507549
42
0.41421356237309503
10
-59.999950000000055
20
-41.427936154507563
10
-59.999950000000091
20
-44.42793615450757
42
-0.41421356237309503
10
-60.999950000000055
20
-45.427936154507535
10
-126.39995000000005
20
-45.427936154507634
42
-0.41421356237309503
10
-127.39995000000005
20
-44.427936154507641
10
-127.39995000000005
20
-41.42793615450762
42
0.41421356237309503
10
-128.39995000000005
20
-40.42793615450762
10
-151.39995000000005
20
-40.427936154507655
42
-0.41421356237309503
10
-152.39995000000008
20
-39.427936154507641
10
-152.39995000000013
20
53.822063845492423
42
-0.41421356237310025
10
-151.3999500000001
20
54.822063845492423
10
-128.3999500000001
20
54.822063845492437
42
0.41421356237309503
10
-127.39995000000009
20
55.822063845492437
10
-127.39995000000009
20
58.822063845492451
42
-0.41421356237309764
10
-126.3999500000001
20
59.822063845492451
10
-60.999950000000105
20
59.822063845492494
42
-0.41421356237309243
10
-59.999950000000112
20
58.822063845492501
10
-59.999950000000112
20
55.822063845492494
42
0.41421356237309243
10
-58.999950000000112
20
54.822063845492501
10
-34.699950000000058
20
54.822063845492522
42
0.41421356237309243
10
-33.699950000000065
20
55.822063845492515
10
-33.699950000000065
20
58.822063845492529
42
-0.41421356237309503
10
-32.699950000000072
20
59.822063845492522
10
32.700049999999976
20
59.822063845492607
42
-0.41421356237309764
10
33.700050000000026
20
58.822063845492551
10
33.700049999999955
20
55.822063845492558
42
0.41421356237309764
10
34.700049999999969
20
54.822063845492565
10
59.000049999999895
20
54.822063845492579
42
0.41421356237309243
10
60.000049999999909
20
55.822063845492579
10
60.000049999999931
20
58.8220638454926
42
-0.41421356237309764
10
61.000049999999924
20
59.822063845492607
10
126.40004999999995
20
59.822063845492636
42
-0.41421356237309503
10
127.40004999999996
20
58.822063845492622
10
127.40004999999996
20
55.822063845492629
42
0.41421356237309503
10
128.40004999999996
20
54.822063845492636
10
151.40004999999996
20
54.822063845492636
42
-0.41421356237311585
10
152.40004999999996
20
53.822063845492693
10
152.40005000000005
20
-39.427936154507393
42
-0.41421356237311585
10
151.40005000000002
20
-40.42793615450735
10
128.40005000000008
20
-40.427936154507393
42
0.41421356237310025
10
127.40005000000008
20
-41.427936154507407
0
LWPOLYLINE
5
173
100
AcDbEntity
8
0
100
AcDbPolyline
90
4
70
1
43
0.0
10
64.500049999999931
20
54.822063845492579
42
-0.99999999999999989
10
64.500049999999931
20
56.822063845492593
10
122.90004999999987
20
56.822063845492671
42
-0.99999999999999989
10
122.90004999999987
20
54.822063845492657
0
LWPOLYLINE
5
174
100
AcDbEntity
8
0
100
AcDbPolyline
90
4
70
1
43
0.0
10
29.200050000000068
20
-40.427936154507833
42
-0.99999999999999989
10
29.200050000000068
20
-42.42793615450779
10
-29.199949999999895
20
-42.427936154507684
42
-0.99999999999999989
10
-29.199949999999895
20
-40.427936154507691
0
LWPOLYLINE
5
175
100
AcDbEntity
8
0
100
AcDbPolyline
90
4
70
1
43
0.0
10
-64.499949999999956
20
-40.427936154507798
42
-0.99999999999999989
10
-64.499949999999956
20
-42.427936154507755
10
-122.8999499999999
20
-42.427936154507933
42
-0.99999999999999989
10
-122.89994999999993
20
-40.42793615450794
0
LWPOLYLINE
5
176
100
AcDbEntity
8
0
100
AcDbPolyline
90
4
70
1
43
0.0
10
-29.199950000000072
20
54.822063845492515
42
-0.99999999999999989
10
-29.199950000000072
20
56.822063845492508
10
29.200049999999926
20
56.8220638454926
42
-0.99999999999999989
10
29.200049999999926
20
54.822063845492586
0
LWPOLYLINE
5
177
100
AcDbEntity
8
0
100
AcDbPolyline
90
4
70
1
43
0.0
10
122.90005000000001
20
-40.427936154507606
42
-0.99999999999999989
10
122.90005000000001
20
-42.427936154507563
10
64.500050000000073
20
-42.427936154507435
42
-0.99999999999999989
10
64.500050000000073
20
-40.427936154507442
0
LWPOLYLINE
5
178
100
AcDbEntity
8
0
100
AcDbPolyline
90
4
70
1
43
0.0
10
-122.89995000000008
20
54.82206384549243
42
-0.99999999999999989
10
-122.89995000000008
20
56.822063845492437
10
-64.499950000000126
20
56.822063845492529
42
-0.99999999999999989
10
-64.499950000000126
20
54.822063845492515
0
LWPOLYLINE
5
179
100
AcDbEntity
8
0
100
AcDbPolyline
90
14
70
1
43
0.0
10
-3.0249500000000928
20
-23.902936154507461
10
-27.931200000000089
20
-23.902936154507479
42
0.41421356237309503
10
-28.431200000000096
20
-24.402936154507486
10
-28.431200000000079
20
-28.402936154507454
10
-58.674950000000067
20
-28.402936154507454
42
0.41421356237309503
10
-60.674950000000067
20
-30.402936154507483
10
-60.674950000000067
20
-31.402936154507461
42
0.41421356237309503
10
-58.674950000000067
20
-33.402936154507458
10
-28.431200000000079
20
-33.402936154507458
10
-28.431200000000079
20
-37.402936154507472
42
0.41421356237309503
10
-27.931200000000089
20
-37.902936154507486
10
-3.0249500000000928
20
-37.902936154507486
42
0.41421356237309503
10
-2.5249500000000857
20
-37.402936154507472
10
-2.5249500000000857
20
-24.402936154507469
42
0.41421356237309503
0
ENDSEC
0
SECTION
2
OBJECTS
0
DICTIONARY
5
C
100
AcDbDictionary
3
ACAD_GROUP
350
D
3
ACAD_MLINESTYLE
350
17
0
DICTIONARY
5
D
100
AcDbDictionary
0
DICTIONARY
5
1A
330
C
100
AcDbDictionary
0
DICTIONARY
5
17
100
AcDbDictionary
0
ENDSEC
0
EOF
